<svg width="179" height="90" viewBox="0 0 179 90" fill="none" xmlns="http://www.w3.org/2000/svg">
<path d="M56 61.6895C54.7507 62.8659 53.4278 63.9394 52.0315 64.9099C50.6352 65.8511 49.1837 66.6746 47.6772 67.3805C45.105 68.6157 42.3307 69.5275 39.3543 70.1157C36.378 70.7333 33.2546 71.0274 29.9843 70.998C26.6772 70.9686 23.6273 70.5715 20.8346 69.8069C18.0787 69.0128 15.5984 67.9246 13.3937 66.5422C11.189 65.1893 9.25984 63.5865 7.6063 61.7336C5.95276 59.8807 4.5748 57.866 3.47244 55.6896C2.33333 53.5426 1.46982 51.2927 0.88189 48.9398C0.330709 46.5576 0.0367454 44.1606 0 41.7489V34.2932C0.0367454 31.9109 0.293963 29.5434 0.771654 27.1905C1.28609 24.8082 2.05774 22.5289 3.08661 20.3525C4.11549 18.1761 5.40157 16.1614 6.94488 14.3085C8.48819 12.4262 10.3438 10.7939 12.5118 9.41163C14.643 8.05873 17.0682 6.98523 19.7874 6.19114C22.5066 5.39705 25.5564 5 28.937 5C32.685 5 36.1391 5.47057 39.2992 6.41172C42.4593 7.32346 45.2152 8.63224 47.5669 10.3381C49.9186 12.0733 51.811 14.1615 53.2441 16.6026C54.6772 19.0143 55.5591 21.7201 55.8898 24.72H45.8031C45.3989 22.8671 44.7743 21.1613 43.9291 19.6025C43.084 18.0143 41.9816 16.6614 40.622 15.5438C39.2257 14.4262 37.5722 13.5586 35.6614 12.9409C33.7507 12.2939 31.5276 11.9704 28.9921 11.9704C26.5669 11.9704 24.4173 12.3086 22.5433 12.9851C20.6693 13.6321 19.0341 14.5144 17.6378 15.632C16.2415 16.7496 15.084 18.0584 14.1654 19.5584C13.2467 21.0289 12.4934 22.5877 11.9055 24.2347C11.3176 25.8817 10.895 27.5581 10.6378 29.264C10.3806 30.9698 10.252 32.6168 10.252 34.205V41.7489C10.2887 43.3665 10.4541 45.0429 10.748 46.7781C11.0787 48.484 11.5748 50.1604 12.2362 51.8074C12.8976 53.4544 13.7428 55.0132 14.7717 56.4837C15.8005 57.9543 17.0499 59.2484 18.5197 60.366C19.9528 61.4836 21.6247 62.3806 23.5354 63.0571C25.4462 63.7041 27.6142 64.0423 30.0394 64.0717C31.4357 64.1011 32.8871 64.057 34.3937 63.9394C35.937 63.8217 37.4252 63.5865 38.8583 63.2335C40.2913 62.8806 41.6325 62.41 42.8819 61.8218C44.1312 61.2042 45.1785 60.4101 46.0236 59.4395L46.1339 45.0135H29.8189V38.1313H55.8346L56 61.6895Z" fill="white"/>
<path d="M56 41H30V38.1729H49.6155L50.823 38.1659L49.7793 37.4685L34.2432 27.1843L35.137 24L56 38.1729V41Z" fill="white"/>
<path d="M62.7402 35.0742H81.1016V65.6875H92.8223V71H62.7402V65.6875H74.959V40.4199H62.7402V35.0742ZM74.1621 25.6445C74.1621 25.1133 74.2396 24.6152 74.3945 24.1504C74.5716 23.6855 74.8372 23.2871 75.1914 22.9551C75.4792 22.6673 75.8444 22.446 76.2871 22.291C76.752 22.1139 77.2721 22.0254 77.8477 22.0254C78.4232 22.0254 78.9323 22.1139 79.375 22.291C79.8177 22.446 80.1829 22.6673 80.4707 22.9551C80.8249 23.265 81.0905 23.6523 81.2676 24.1172C81.4447 24.582 81.5332 25.0911 81.5332 25.6445C81.5332 26.6406 81.2233 27.4707 80.6035 28.1348C79.9837 28.7988 79.0651 29.1309 77.8477 29.1309C76.6081 29.1309 75.6784 28.7988 75.0586 28.1348C74.4609 27.4707 74.1621 26.6406 74.1621 25.6445ZM117.16 26.375V35.0742H130.84V39.8223H117.16V59.3457C117.16 60.7402 117.337 61.8913 117.691 62.7988C118.046 63.7064 118.533 64.4258 119.152 64.957C119.772 65.5104 120.48 65.8978 121.277 66.1191C122.096 66.3405 122.96 66.4512 123.867 66.4512C124.531 66.4512 125.217 66.418 125.926 66.3516C126.634 66.263 127.331 66.1634 128.018 66.0527C128.682 65.9421 129.301 65.8314 129.877 65.7207C130.475 65.5879 130.962 65.4772 131.338 65.3887L132.201 69.7383C131.692 70.0482 131.072 70.3249 130.342 70.5684C129.611 70.7897 128.814 70.9779 127.951 71.1328C127.088 71.3099 126.169 71.4427 125.195 71.5312C124.243 71.6198 123.292 71.6641 122.34 71.6641C120.746 71.6641 119.252 71.4427 117.857 71C116.485 70.5352 115.29 69.8047 114.271 68.8086C113.253 67.8346 112.445 66.5729 111.848 65.0234C111.272 63.4518 110.984 61.5592 110.984 59.3457V39.8223H101.555V35.0742H110.984V26.375H117.16ZM155.709 71L140.934 35.0742H147.242L157.535 62.168L158.1 64.3926L158.697 62.168L168.758 35.0742H175.033L160.391 71H155.709Z" fill="white"/>
</svg>
